<svg xmlns="http://www.w3.org/2000/svg" viewBox="0 0 720 400" font-family="-apple-system, BlinkMacSystemFont, 'Segoe UI', Roboto, sans-serif">
  <rect width="720" height="400" fill="#ffffff"/>
  <text x="360" y="34" text-anchor="middle" font-size="18" font-weight="600" fill="#1a1a1a">Resistance training dose vs all-cause mortality reduction</text>
  <text x="360" y="55" text-anchor="middle" font-size="12" fill="#777">Momma 2022, BJSM · meta-analysis · n = 263,058 · non-linear dose-response</text>

  <!-- Plot region: x [100..680] = 580px wide for 0..200 min/week, so 1 min = 2.9px -->
  <!-- y [80..310] = 230px tall for 0..20% reduction, so 1% = 11.5px -->
  <!-- x(min) = 100 + min * 2.9 -->
  <!-- y(pct) = 310 - pct * 11.5 -->

  <!-- Sweet-spot band: min 30..60 -->
  <rect x="187" y="80" width="87" height="230" fill="#2a9d8f" fill-opacity="0.08"/>
  <text x="231" y="98" text-anchor="middle" font-size="10" fill="#2a9d8f" font-weight="600">SWEET SPOT</text>
  <text x="231" y="111" text-anchor="middle" font-size="10" fill="#2a9d8f">30–60 min/wk</text>

  <!-- Axes -->
  <line x1="100" y1="80" x2="100" y2="310" stroke="#444" stroke-width="1.3"/>
  <line x1="100" y1="310" x2="680" y2="310" stroke="#444" stroke-width="1.3"/>

  <!-- Y-axis gridlines and ticks -->
  <g font-size="11" fill="#888">
    <line x1="100" y1="252" x2="680" y2="252" stroke="#f1f1f1"/>
    <text x="92" y="256" text-anchor="end">5%</text>
    <line x1="100" y1="195" x2="680" y2="195" stroke="#f1f1f1"/>
    <text x="92" y="199" text-anchor="end">10%</text>
    <line x1="100" y1="137" x2="680" y2="137" stroke="#f1f1f1"/>
    <text x="92" y="141" text-anchor="end">15%</text>
    <line x1="100" y1="80" x2="680" y2="80" stroke="#f1f1f1"/>
    <text x="92" y="84" text-anchor="end">20%</text>
    <text x="92" y="314" text-anchor="end">0</text>
  </g>

  <!-- X-axis ticks -->
  <g font-size="11" fill="#888" text-anchor="middle">
    <line x1="158" y1="310" x2="158" y2="314" stroke="#444"/>
    <text x="158" y="328">20</text>
    <line x1="216" y1="310" x2="216" y2="314" stroke="#444"/>
    <text x="216" y="328">40</text>
    <line x1="274" y1="310" x2="274" y2="314" stroke="#444"/>
    <text x="274" y="328">60</text>
    <line x1="332" y1="310" x2="332" y2="314" stroke="#444"/>
    <text x="332" y="328">80</text>
    <line x1="390" y1="310" x2="390" y2="314" stroke="#444"/>
    <text x="390" y="328">100</text>
    <line x1="448" y1="310" x2="448" y2="314" stroke="#444"/>
    <text x="448" y="328">120</text>
    <line x1="506" y1="310" x2="506" y2="314" stroke="#444"/>
    <text x="506" y="328">140</text>
    <line x1="564" y1="310" x2="564" y2="314" stroke="#444"/>
    <text x="564" y="328">160</text>
    <line x1="622" y1="310" x2="622" y2="314" stroke="#444"/>
    <text x="622" y="328">180</text>
    <line x1="680" y1="310" x2="680" y2="314" stroke="#444"/>
    <text x="680" y="328">200</text>
  </g>

  <!-- Curve. Points (min, pct) → (x, y):
       (0, 0)      → (100, 310)
       (10, 4.5)   → (129, 258.25)
       (20, 9)     → (158, 206.5)
       (30, 14)    → (187, 149)
       (35, 16.2)  → (201.5, 123.7)
       (40, 17)    → (216, 114.5)   ← peak
       (45, 16.5)  → (230.5, 120.25)
       (50, 15.5)  → (245, 131.75)
       (60, 14.0)  → (274, 149)
       (75, 12.7)  → (317.5, 164)
       (90, 11.8)  → (361, 174.3)
       (120, 11.0) → (448, 183.5)
       (150, 10.5) → (535, 189.25)
       (200, 10.0) → (680, 195)
  -->
  <polyline points="100,310 129,258 158,207 187,149 202,124 216,114.5 231,120 245,132 274,149 318,164 361,174 448,184 535,189 680,195"
            fill="none" stroke="#2a9d8f" stroke-width="2.5"
            stroke-linejoin="round" stroke-linecap="round"/>

  <!-- Peak marker (now actually on the curve) -->
  <circle cx="216" cy="114.5" r="5" fill="#2a9d8f"/>
  <line x1="216" y1="119.5" x2="216" y2="310" stroke="#2a9d8f" stroke-width="1" stroke-dasharray="3,3" opacity="0.4"/>
  <text x="232" y="111" font-size="12" font-weight="600" fill="#1a1a1a">peak: −17% at ~40 min/wk</text>

  <!-- Axis labels -->
  <text x="34" y="195" text-anchor="middle" font-size="12" fill="#666" transform="rotate(-90 34 195)">ACM reduction</text>
  <text x="390" y="358" text-anchor="middle" font-size="12" fill="#666">Muscle-strengthening activity (minutes / week)</text>

  <!-- Annotation -->
  <text x="390" y="384" text-anchor="middle" font-size="11" fill="#999" font-style="italic">Benefit plateaus past ~60 min/week. More is fine, but doesn't add more longevity.</text>
</svg>
